<svg xmlns="http://www.w3.org/2000/svg" width="1200" height="630" viewBox="0 0 1200 630" role="img" aria-label="PowerFit social preview">
  <defs>
    <linearGradient id="hero" x1="0" y1="0" x2="1" y2="1">
      <stop offset="0" stop-color="#07080A"/>
      <stop offset="0.58" stop-color="#101113"/>
      <stop offset="1" stop-color="#1A1B1D"/>
    </linearGradient>
    <pattern id="grid" width="72" height="72" patternUnits="userSpaceOnUse">
      <path d="M72 0H0V72" fill="none" stroke="#FAF6EE" stroke-opacity=".055" stroke-width="1"/>
    </pattern>
  </defs>
  <rect width="1200" height="630" fill="url(#hero)"/>
  <rect width="1200" height="630" fill="url(#grid)" opacity=".5"/>
  <rect x="760" y="110" width="292" height="410" rx="8" fill="#242629"/>
  <path d="M760 110h292v246H760z" fill="#4D5557"/>
  <path d="M804 356h248v164H804z" fill="#202225"/>
  <circle cx="900" cy="234" r="70" fill="#C6C1B8" opacity=".42"/>
  <path d="M794 296c84-76 158-74 236-6v66H794z" fill="#101113" opacity=".76"/>
  <path d="M860 214c50-56 114-51 158 6" fill="none" stroke="#FAF6EE" stroke-opacity=".42" stroke-width="18" stroke-linecap="round"/>
  <text x="120" y="116" fill="#FAF6EE" font-family="Arial Black, Impact, sans-serif" font-size="42" font-weight="900">POWERFIT</text>
  <text x="120" y="188" fill="#C7974A" font-family="Arial, sans-serif" font-size="16" font-weight="800" letter-spacing="5">FLAGSHIP PERFORMANCE CLUB</text>
  <text x="120" y="300" fill="#FAF6EE" font-family="Arial Black, Impact, sans-serif" font-size="88" font-weight="900">Train with intent.</text>
  <text x="120" y="394" fill="#FAF6EE" font-family="Arial Black, Impact, sans-serif" font-size="88" font-weight="900">Leave with proof.</text>
  <text x="120" y="462" fill="#D4D0C8" font-family="Arial, sans-serif" font-size="28">A premium performance club for people with no time to waste.</text>
  <rect x="120" y="520" width="200" height="48" rx="4" fill="#C7974A"/>
  <text x="148" y="552" fill="#07080A" font-family="Arial, sans-serif" font-size="16" font-weight="800">Book a private tour</text>
</svg>
